<?xml version="1.0" standalone="no"?>
<!DOCTYPE svg PUBLIC "-//W3C//DTD SVG 20010904//EN"
 "http://www.w3.org/TR/2001/REC-SVG-20010904/DTD/svg10.dtd">
<svg version="1.0" xmlns="http://www.w3.org/2000/svg"
 width="225.000000pt" height="225.000000pt" viewBox="0 0 225.000000 225.000000"
 preserveAspectRatio="xMidYMid meet">

<g transform="translate(0.000000,225.000000) scale(0.100000,-0.100000)"
fill="#000000" stroke="none">
<path d="M1015 2130 c-291 -31 -567 -199 -731 -446 -308 -463 -183 -1091 278
-1398 100 -66 169 -98 286 -132 355 -102 745 -5 998 251 153 154 253 358 282
573 l9 62 -253 0 -253 0 -16 -57 c-62 -217 -256 -362 -481 -363 -149 0 -256
42 -360 142 -103 98 -154 219 -154 363 0 144 51 265 154 363 111 107 222 147
380 140 115 -6 159 -20 257 -84 100 -66 171 -163 204 -276 l16 -58 253 0 253
0 -9 63 c-19 137 -83 302 -166 424 -164 241 -429 398 -732 433 -93 11 -112 11
-215 0z"/>
</g>
</svg>
